<svg width="427" height="363" viewBox="0 0 427 363" fill="none" xmlns="http://www.w3.org/2000/svg">
<path d="M424.482 58.7663C426.356 61.8797 426.436 65.7383 424.694 68.9255L265.107 360.841C264.379 362.171 262.974 363 261.445 363H197.331L360.472 62.6981L6.94643 63.7627C3.5998 63.7727 1.61023 60.0705 3.49094 57.3325L41.7246 1.67188C42.1111 1.10926 42.7536 0.771799 43.4413 0.770256L386.739 1.06374e-05C388.21 -0.00328892 389.573 0.761213 390.326 2.01108L424.482 58.7663Z" fill="url(#paint0_linear_605_29)"/>
<path d="M383.86 5.12471C384.98 1.78353 389.548 1.28317 391.379 4.30106L426.406 62.0098C427.164 63.2579 427.199 64.809 426.498 66.0891L263.926 363H199.579C198.176 363 196.867 362.301 196.098 361.14L0.68121 66.284C-0.228247 64.9117 -0.226969 63.1364 0.684444 61.7654L38.6558 4.64792C40.3389 2.11603 44.1175 2.18959 45.6986 4.78502L263.926 363L383.86 5.12471Z" fill="#0814FF" fill-opacity="0.9"/>
<defs>
<linearGradient id="paint0_linear_605_29" x1="180.616" y1="-156.937" x2="298.817" y2="407.012" gradientUnits="userSpaceOnUse">
<stop stop-color="#4A6DEA"/>
<stop offset="0.214583" stop-color="#042DBD"/>
<stop offset="0.759103" stop-color="#6407F6"/>
</linearGradient>
</defs>
</svg>
